<svg width="16" height="16" viewBox="0 0 16 16" fill="none" xmlns="http://www.w3.org/2000/svg">
<g clip-path="url(#clip0_1_5038)">
<path d="M0.000366211 1.5C0.000366211 1.36739 0.0530446 1.24021 0.146813 1.14645C0.240581 1.05268 0.367758 1 0.500366 1H2.00037C2.1119 1.00003 2.22022 1.03735 2.3081 1.10602C2.39598 1.1747 2.45838 1.27078 2.48537 1.379L2.89037 3H14.5004C14.5738 3.00007 14.6463 3.0163 14.7127 3.04755C14.7792 3.0788 14.8379 3.12429 14.8848 3.1808C14.9316 3.23731 14.9655 3.30345 14.9839 3.37452C15.0023 3.44558 15.0049 3.51984 14.9914 3.592L13.4914 11.592C13.4699 11.7066 13.4091 11.8101 13.3195 11.8846C13.2298 11.9591 13.1169 11.9999 13.0004 12H4.00037C3.8838 11.9999 3.77093 11.9591 3.68128 11.8846C3.59162 11.8101 3.53081 11.7066 3.50937 11.592L2.01037 3.607L1.61037 2H0.500366C0.367758 2 0.240581 1.94732 0.146813 1.85355C0.0530446 1.75979 0.000366211 1.63261 0.000366211 1.5ZM3.10237 4L4.41537 11H12.5854L13.8984 4H3.10237ZM5.00037 12C4.46993 12 3.96123 12.2107 3.58615 12.5858C3.21108 12.9609 3.00037 13.4696 3.00037 14C3.00037 14.5304 3.21108 15.0391 3.58615 15.4142C3.96123 15.7893 4.46993 16 5.00037 16C5.5308 16 6.03951 15.7893 6.41458 15.4142C6.78965 15.0391 7.00037 14.5304 7.00037 14C7.00037 13.4696 6.78965 12.9609 6.41458 12.5858C6.03951 12.2107 5.5308 12 5.00037 12ZM12.0004 12C11.4699 12 10.9612 12.2107 10.5862 12.5858C10.2111 12.9609 10.0004 13.4696 10.0004 14C10.0004 14.5304 10.2111 15.0391 10.5862 15.4142C10.9612 15.7893 11.4699 16 12.0004 16C12.5308 16 13.0395 15.7893 13.4146 15.4142C13.7897 15.0391 14.0004 14.5304 14.0004 14C14.0004 13.4696 13.7897 12.9609 13.4146 12.5858C13.0395 12.2107 12.5308 12 12.0004 12ZM5.00037 13C5.26558 13 5.51994 13.1054 5.70747 13.2929C5.89501 13.4804 6.00037 13.7348 6.00037 14C6.00037 14.2652 5.89501 14.5196 5.70747 14.7071C5.51994 14.8946 5.26558 15 5.00037 15C4.73515 15 4.4808 14.8946 4.29326 14.7071C4.10572 14.5196 4.00037 14.2652 4.00037 14C4.00037 13.7348 4.10572 13.4804 4.29326 13.2929C4.4808 13.1054 4.73515 13 5.00037 13ZM12.0004 13C12.2656 13 12.5199 13.1054 12.7075 13.2929C12.895 13.4804 13.0004 13.7348 13.0004 14C13.0004 14.2652 12.895 14.5196 12.7075 14.7071C12.5199 14.8946 12.2656 15 12.0004 15C11.7351 15 11.4808 14.8946 11.2933 14.7071C11.1057 14.5196 11.0004 14.2652 11.0004 14C11.0004 13.7348 11.1057 13.4804 11.2933 13.2929C11.4808 13.1054 11.7351 13 12.0004 13Z" fill="#23A6F0"/>
</g>
<defs>
<clipPath id="clip0_1_5038">
<rect width="16" height="16" fill="white" transform="translate(0.000366211)"/>
</clipPath>
</defs>
</svg>
